<mxfile host="app.diagrams.net" modified="2022-05-13T09:25:59.927Z" agent="5.0 (Windows)" etag="sQN0T8b-cbOq_UeVpJRd" version="18.0.3" type="github">
  <diagram name="Page-1" id="42789a77-a242-8287-6e28-9cd8cfd52e62">
    <mxGraphModel dx="865" dy="455" grid="1" gridSize="10" guides="1" tooltips="1" connect="1" arrows="1" fold="1" page="1" pageScale="1" pageWidth="1100" pageHeight="850" background="none" math="0" shadow="0">
      <root>
        <mxCell id="0" />
        <mxCell id="1" parent="0" />
        <mxCell id="WGArmnnO4fhZ9Dh5sHth-5" value="data_valid" style="edgeStyle=orthogonalEdgeStyle;curved=1;rounded=0;orthogonalLoop=1;jettySize=auto;html=1;shadow=0;fontFamily=Lucida Console;" edge="1" parent="1" source="1ea317790d2ca983-7" target="WGArmnnO4fhZ9Dh5sHth-1">
          <mxGeometry x="-0.1111" y="-15" relative="1" as="geometry">
            <mxPoint as="offset" />
          </mxGeometry>
        </mxCell>
        <mxCell id="1ea317790d2ca983-7" value="Ready" style="ellipse;whiteSpace=wrap;html=1;rounded=0;shadow=0;comic=0;labelBackgroundColor=none;strokeWidth=1;fontFamily=Lucida Console;fontSize=12;align=center;" parent="1" vertex="1">
          <mxGeometry x="480" y="230" width="80" height="50" as="geometry" />
        </mxCell>
        <mxCell id="WGArmnnO4fhZ9Dh5sHth-7" style="edgeStyle=orthogonalEdgeStyle;curved=1;rounded=0;orthogonalLoop=1;jettySize=auto;html=1;shadow=0;fontFamily=Lucida Console;exitX=0.5;exitY=1;exitDx=0;exitDy=0;entryX=1;entryY=0.5;entryDx=0;entryDy=0;" edge="1" parent="1" source="WGArmnnO4fhZ9Dh5sHth-1" target="WGArmnnO4fhZ9Dh5sHth-2">
          <mxGeometry relative="1" as="geometry" />
        </mxCell>
        <mxCell id="WGArmnnO4fhZ9Dh5sHth-1" value="Load" style="ellipse;whiteSpace=wrap;html=1;rounded=0;shadow=0;comic=0;labelBackgroundColor=none;strokeWidth=1;fontFamily=Lucida Console;fontSize=12;align=center;" vertex="1" parent="1">
          <mxGeometry x="600" y="310" width="80" height="50" as="geometry" />
        </mxCell>
        <mxCell id="WGArmnnO4fhZ9Dh5sHth-10" value="round_ctr is zero" style="edgeStyle=orthogonalEdgeStyle;curved=1;rounded=0;orthogonalLoop=1;jettySize=auto;html=1;shadow=0;fontFamily=Lucida Console;" edge="1" parent="1" source="WGArmnnO4fhZ9Dh5sHth-2" target="WGArmnnO4fhZ9Dh5sHth-3">
          <mxGeometry x="-0.1111" y="-15" relative="1" as="geometry">
            <mxPoint as="offset" />
          </mxGeometry>
        </mxCell>
        <mxCell id="WGArmnnO4fhZ9Dh5sHth-2" value="&lt;div&gt;Permute&lt;/div&gt;" style="ellipse;whiteSpace=wrap;html=1;rounded=0;shadow=0;comic=0;labelBackgroundColor=none;strokeWidth=1;fontFamily=Lucida Console;fontSize=12;align=center;" vertex="1" parent="1">
          <mxGeometry x="480" y="390" width="80" height="50" as="geometry" />
        </mxCell>
        <mxCell id="WGArmnnO4fhZ9Dh5sHth-11" value="not data valid" style="edgeStyle=orthogonalEdgeStyle;curved=1;rounded=0;orthogonalLoop=1;jettySize=auto;html=1;entryX=0;entryY=0.5;entryDx=0;entryDy=0;shadow=0;fontFamily=Lucida Console;exitX=0.5;exitY=0;exitDx=0;exitDy=0;" edge="1" parent="1" source="WGArmnnO4fhZ9Dh5sHth-3" target="1ea317790d2ca983-7">
          <mxGeometry x="-0.5556" y="-10" relative="1" as="geometry">
            <mxPoint as="offset" />
          </mxGeometry>
        </mxCell>
        <mxCell id="WGArmnnO4fhZ9Dh5sHth-3" value="Finished" style="ellipse;whiteSpace=wrap;html=1;rounded=0;shadow=0;comic=0;labelBackgroundColor=none;strokeWidth=1;fontFamily=Lucida Console;fontSize=12;align=center;" vertex="1" parent="1">
          <mxGeometry x="360" y="310" width="80" height="50" as="geometry" />
        </mxCell>
        <mxCell id="WGArmnnO4fhZ9Dh5sHth-6" value="&lt;div&gt;not data_valid&lt;/div&gt;" style="curved=1;endArrow=classic;html=1;rounded=0;shadow=0;exitX=0.5;exitY=0;exitDx=0;exitDy=0;entryX=0.893;entryY=0.216;entryDx=0;entryDy=0;entryPerimeter=0;fontFamily=Lucida Console;" edge="1" parent="1" source="1ea317790d2ca983-7" target="1ea317790d2ca983-7">
          <mxGeometry x="0.1503" y="18" width="50" height="50" relative="1" as="geometry">
            <mxPoint x="480" y="210" as="sourcePoint" />
            <mxPoint x="570" y="240" as="targetPoint" />
            <Array as="points">
              <mxPoint x="520" y="200" />
              <mxPoint x="570" y="210" />
            </Array>
            <mxPoint as="offset" />
          </mxGeometry>
        </mxCell>
        <mxCell id="WGArmnnO4fhZ9Dh5sHth-9" value="round_ctr is not zero &lt;span class=&quot;pl-k&quot;&gt;&lt;/span&gt;" style="curved=1;endArrow=classic;html=1;rounded=0;shadow=0;fontFamily=Lucida Console;entryX=0.323;entryY=1;entryDx=0;entryDy=0;entryPerimeter=0;" edge="1" parent="1" source="WGArmnnO4fhZ9Dh5sHth-2" target="WGArmnnO4fhZ9Dh5sHth-2">
          <mxGeometry x="0.0074" y="20" width="50" height="50" relative="1" as="geometry">
            <mxPoint x="420" y="380" as="sourcePoint" />
            <mxPoint x="490" y="530" as="targetPoint" />
            <Array as="points">
              <mxPoint x="560" y="480" />
              <mxPoint x="480" y="480" />
            </Array>
            <mxPoint as="offset" />
          </mxGeometry>
        </mxCell>
        <mxCell id="WGArmnnO4fhZ9Dh5sHth-13" value="" style="curved=1;endArrow=classic;html=1;rounded=0;shadow=0;fontFamily=Lucida Console;entryX=0;entryY=0;entryDx=0;entryDy=0;" edge="1" parent="1" source="WGArmnnO4fhZ9Dh5sHth-3" target="WGArmnnO4fhZ9Dh5sHth-3">
          <mxGeometry width="50" height="50" relative="1" as="geometry">
            <mxPoint x="420" y="380" as="sourcePoint" />
            <mxPoint x="280" y="330" as="targetPoint" />
            <Array as="points">
              <mxPoint x="310" y="360" />
              <mxPoint x="320" y="280" />
            </Array>
          </mxGeometry>
        </mxCell>
        <mxCell id="WGArmnnO4fhZ9Dh5sHth-14" value="data_valid" style="edgeLabel;html=1;align=center;verticalAlign=middle;resizable=0;points=[];fontFamily=Lucida Console;" vertex="1" connectable="0" parent="WGArmnnO4fhZ9Dh5sHth-13">
          <mxGeometry x="0.0712" y="-3" relative="1" as="geometry">
            <mxPoint x="11" y="50" as="offset" />
          </mxGeometry>
        </mxCell>
      </root>
    </mxGraphModel>
  </diagram>
</mxfile>
